<svg id="Layer_1" data-name="Layer 1" xmlns="http://www.w3.org/2000/svg" xmlns:xlink="http://www.w3.org/1999/xlink" viewBox="0 0 227.08 69.8"><defs><style>.cls-1,.cls-2{fill:none;}.cls-1{clip-rule:evenodd;}.cls-3{clip-path:url(#clip-path);}.cls-4{clip-path:url(#clip-path-2);}.cls-5{fill:#0099d8;}.cls-6{clip-path:url(#clip-path-3);}.cls-7{fill:#fff;}.cls-8{clip-path:url(#clip-path-5);}.cls-9{clip-path:url(#clip-path-7);}.cls-10{clip-path:url(#clip-path-9);}.cls-11{clip-path:url(#clip-path-11);}.cls-12{clip-path:url(#clip-path-13);}.cls-13{clip-path:url(#clip-path-15);}.cls-14{clip-path:url(#clip-path-17);}.cls-15{clip-path:url(#clip-path-19);}.cls-16{clip-path:url(#clip-path-21);}.cls-17{clip-path:url(#clip-path-23);}.cls-18{clip-path:url(#clip-path-25);}.cls-19{clip-path:url(#clip-path-27);}.cls-20{clip-path:url(#clip-path-29);}.cls-21{clip-path:url(#clip-path-31);}.cls-22{clip-path:url(#clip-path-33);}.cls-23{clip-path:url(#clip-path-35);}.cls-24{clip-path:url(#clip-path-37);}.cls-25{clip-path:url(#clip-path-39);}.cls-26{clip-path:url(#clip-path-41);}.cls-27{clip-path:url(#clip-path-43);}</style><clipPath id="clip-path" transform="translate(4.27 4.05)"><path class="cls-1" d="M197.43,7a8.57,8.57,0,1,1-8.7,8.56A8.63,8.63,0,0,1,197.43,7"/></clipPath><clipPath id="clip-path-2" transform="translate(4.27 4.05)"><rect class="cls-2" x="0.73" y="0.95" width="218" height="60"/></clipPath><clipPath id="clip-path-3" transform="translate(4.27 4.05)"><rect class="cls-2" x="170.73" y="0.95" width="1.4" height="29.49"/></clipPath><clipPath id="clip-path-5" transform="translate(4.27 4.05)"><rect class="cls-2" x="0.73" y="40.95" width="217.08" height="19.8"/></clipPath><clipPath id="clip-path-7" transform="translate(4.27 4.05)"><path class="cls-1" d="M6.73,54.65h3.93c2.25,0,3.37-.7,3.37-2.38,0-1.13-.7-1.83-2.11-2.11,1.27-.28,1.83-1,1.83-2C13.75,46.65,12.48,46,10,46H6.73ZM9,49.6v-2h.85c1,0,1.4.28,1.4,1s-.42,1-1.4,1Zm0,3.51V51h.85c1.12,0,1.54.28,1.54,1s-.56,1-1.54,1H9Z"/></clipPath><clipPath id="clip-path-9" transform="translate(4.27 4.05)"><polygon class="cls-1" points="15.73 54.51 21.91 54.51 21.91 52.83 18.11 52.83 18.11 45.95 15.73 45.95 15.73 54.51"/></clipPath><clipPath id="clip-path-11" transform="translate(4.27 4.05)"><path class="cls-1" d="M22.73,46v5.19c0,2.25,1.26,3.51,3.93,3.51s4.07-1.12,4.07-3.37V46H28.48v5a1.59,1.59,0,0,1-1.68,1.83c-1.12,0-1.69-.56-1.69-1.83V46Z"/></clipPath><clipPath id="clip-path-13" transform="translate(4.27 4.05)"><polygon class="cls-1" points="32.73 54.51 39.05 54.51 39.05 52.69 34.97 52.69 34.97 51 38.77 51 38.77 49.32 34.97 49.32 34.97 47.63 38.91 47.63 38.91 45.95 32.73 45.95 32.73 54.51"/></clipPath><clipPath id="clip-path-15" transform="translate(4.27 4.05)"><path class="cls-1" d="M53.87,51.85H51.48a1.29,1.29,0,0,1-1.4,1.26c-1.12,0-1.83-.84-1.83-2.67s.57-2.81,1.69-2.81c.84,0,1.4.42,1.4,1.13h2.39c-.14-1.83-1.4-2.81-3.65-2.81-2.81,0-4.35,1.54-4.35,4.49a3.84,3.84,0,0,0,4.21,4.21c2.53,0,3.93-1,3.93-2.8"/></clipPath><clipPath id="clip-path-17" transform="translate(4.27 4.05)"><path class="cls-1" d="M54.87,54.65h2.38V51.28h.85a1,1,0,0,1,1.12.85c.14.56.14,1.26.28,2.38H62a19.87,19.87,0,0,1-.56-2.95,1.56,1.56,0,0,0-1.69-1.26,2,2,0,0,0,2-2.1c0-1.41-1.13-2.25-3.23-2.25H54.73v8.7Zm2.38-4.91V47.63h1c1,0,1.4.28,1.4,1s-.42,1.12-1.4,1.12Z"/></clipPath><clipPath id="clip-path-19" transform="translate(4.27 4.05)"><path class="cls-1" d="M66.25,50.3c0-1.82.71-2.67,2-2.67s2,.85,2,2.67-.71,2.67-2,2.67-2-.84-2-2.67m-2.52,0c0,2.81,1.54,4.35,4.35,4.35a4,4,0,0,0,4.35-4.35c0-2.81-1.54-4.35-4.35-4.35a4,4,0,0,0-4.35,4.35"/></clipPath><clipPath id="clip-path-21" transform="translate(4.27 4.05)"><path class="cls-1" d="M77.11,51.85H74.73c0,1.82,1.26,2.8,3.51,2.8,2.52,0,3.93-1,3.93-2.66,0-1.27-.7-2-2.25-2.39s-2.67-.56-2.67-1.26.43-.85,1.13-.85a1,1,0,0,1,1.12,1.13h2.39v-.14c0-1.69-1.13-2.53-3.51-2.53s-3.51,1.12-3.51,2.53,1,2.1,2.81,2.52c1.26.28,2,.42,2,1.13,0,.56-.42,1-1.4,1-.71,0-1.13-.42-1.13-1.26"/></clipPath><clipPath id="clip-path-23" transform="translate(4.27 4.05)"><path class="cls-1" d="M86.11,51.85H83.73c0,1.82,1.26,2.8,3.51,2.8,2.52,0,3.93-1,3.93-2.66,0-1.27-.7-2-2.25-2.39s-2.67-.56-2.67-1.26.43-.85,1.13-.85a1,1,0,0,1,1.12,1.13h2.39v-.14c0-1.69-1.13-2.53-3.51-2.53s-3.51,1.12-3.51,2.53,1,2.1,2.81,2.52c1.26.28,2,.42,2,1.13,0,.56-.42,1-1.4,1-.71,0-1.13-.42-1.13-1.26"/></clipPath><clipPath id="clip-path-25" transform="translate(4.27 4.05)"><path class="cls-1" d="M84.17,18.57l1.55-3.65C87,12,88.52,8.32,89.79,5.51c.14-.42.56-.42.84-.42h4.92c.14,0,.42.14.42.28s-.14.42-.28.42c-1.13.14-1.55.7-1.41,2.39L96,23.62c.14,1.69.42,2.25,1.4,2.39.14,0,.28.14.28.42a.3.3,0,0,1-.28.28c-.7,0-2.39-.28-3.37-.28s-2.81.28-3.51.28c-.28,0-.28-.14-.28-.28s.14-.28.28-.42c1-.14,1.26-.7,1.12-2.39l-1.26-13.2-.14.29C88.38,14.78,85.58,21,83.05,26.43c-.28.56-.7.56-1,0-2.95-6.6-5.76-12.07-7.31-15.72l-.14-.29v.43c-.42,3.37-1.4,9.68-1.4,12.77,0,1.55.56,2.25,1.54,2.39a.3.3,0,0,1,.28.28c0,.14-.14.28-.42.28-1,0-1.82-.28-2.8-.28s-1.83.28-2.67.28c-.28,0-.42-.14-.42-.28s.14-.28.28-.42c1-.28,1.54-1,1.68-2.53.56-2.95,1.41-10.67,1.83-15.3.14-1.69-.42-2.25-1.55-2.39-.14,0-.28-.28-.28-.42S71,5,71.11,5h5.62a.51.51,0,0,1,.42.14.14.14,0,0,0,.14.14l.14.28,4.21,9.41,1.69,3.65.42,1.12.14.28Z"/></clipPath><clipPath id="clip-path-27" transform="translate(4.27 4.05)"><path class="cls-1" d="M36.71,7.49a7.54,7.54,0,0,0-3,.28l-.14,16.71c0,1.69.42,2.25,1.41,2.39.14,0,.28.28.28.42s0,.28-.28.28c-.7,0-2.25-.14-3.37-.14s-2.81.14-3.51.14c-.28,0-.28-.14-.28-.28s.14-.28.28-.42c1-.28,1.26-.7,1.26-2.39V9.18c0-1.69-.42-2.25-1.4-2.39-.14,0-.28-.28-.28-.42A.3.3,0,0,1,28,6.09c2.52.28,8.7-.14,11-.14,3.51,0,6.6,2.1,6.6,5.61,0,2-1.83,4.22-4.35,5.34l-.14.14c1.54,1,2.8,3.09,3.93,5.2.28.56,1,1.82,1.68,2.94a22.18,22.18,0,0,0,1.55,2.67c1.4,2,2.94,2.67,4.07,2.67.14,0,.14.14.28.14s.14.14.14.28,0,.28-.28.28H50.61a6.93,6.93,0,0,1-6.46-3.09,21.87,21.87,0,0,1-1.82-2.66c-.56-1-1.26-2.39-2.11-3.8a19.35,19.35,0,0,0-2.52-3.51,8.34,8.34,0,0,0-2.67-1h-.28l.7-.84c2.95,0,5.9-1.12,5.9-4.49,0-3.09-2.11-4.36-4.64-4.36"/></clipPath><clipPath id="clip-path-29" transform="translate(4.27 4.05)"><path class="cls-1" d="M21.44,9.23c0-4.91-3.23-6.6-6.6-6.6a14.46,14.46,0,0,0-3.51.42l-.14,23.73c0,2,.42,2.53,1.68,2.81.14,0,.28.28.28.42a.45.45,0,0,1-.42.42c-.7,0-2.53-.28-3.79-.28s-2.95.28-3.79.28A.37.37,0,0,1,4.73,30c0-.14.14-.42.28-.42,1.12-.28,1.54-.84,1.54-2.81V4.6c0-2-.42-2.53-1.54-2.81-.14,0-.28-.28-.28-.42A.3.3,0,0,1,5,1.09C8,1.37,13.71,1,16.38,1,21,1,25.79,3.19,25.79,9.23s-5.48,8.85-10.11,8.85a11.29,11.29,0,0,1-3.79-.56l.56-1.13c.42,0,1.4.14,2,.14,2.67,0,7-1.4,7-7.3"/></clipPath><clipPath id="clip-path-31" transform="translate(4.27 4.05)"><path class="cls-1" d="M143.05,26c.14,0,.14.14.28.14s.14.14.14.28,0,.28-.28.28h-3.65a3.74,3.74,0,0,1-2.95-1.12,8.29,8.29,0,0,1-.56-.84l-1-1.41c-.7-1-1.55-2.24-2.11-2.95s-.84-1.12-1.12-1.54-.7-.84-1.12-1.26a4.31,4.31,0,0,0-1-.71,4.56,4.56,0,0,0-2-.56h-.28l.7-.84c3,0,5.9-1.26,5.9-4.63,0-3.09-2-4.36-4.5-4.36a11.12,11.12,0,0,0-2.95.28l-.14,16.71c0,1.69.43,2.25,1.41,2.39.14,0,.28.28.28.42s0,.28-.28.28c-.7,0-2.39-.28-3.51-.28s-2.67.28-3.23.28c-.28,0-.28-.14-.28-.28s.14-.28.28-.42c1-.28,1.26-.7,1.26-2.39V8.18c0-1.69-.42-2.25-1.4-2.39-.14,0-.28-.28-.28-.42a.3.3,0,0,1,.28-.28c2.52.28,8.28-.14,10.53-.14,3.51,0,6.74,2.1,6.74,5.62,0,2.52-1.69,4.49-4.78,5.47l-.28.14.28.14a5.17,5.17,0,0,1,1.83,1.27c.28.28.56.7.84,1s.42.7.7.84c.85,1.12,1.69,2.39,2.39,3.23C140.81,25,141.93,26,143.05,26"/></clipPath><clipPath id="clip-path-33" transform="translate(4.27 4.05)"><path class="cls-1" d="M145.92,19.73l-3.09,6.88-2.1-1c3.08-6.88,7.44-16.56,9.4-20.36a.66.66,0,0,1,1.13,0c2,3.94,9.4,19,9.4,19,.71,1.4,1.27,2.25,2.39,2.53.14,0,.28.14.28.42s0,.28-.28.28c-.7,0-2.53-.14-3.51-.14-1.26,0-2.81.14-3.51.14-.14,0-.28-.14-.42-.28s0-.28.28-.28c1.12-.28,1-.84.42-2.39L155.05,22l-.7-1.4-.28-.42Zm7.16-1.83s-2.38-5.47-3-6.74L150,11l-3.23,6.88Z"/></clipPath><clipPath id="clip-path-35" transform="translate(4.27 4.05)"><path class="cls-1" d="M114.77,14.22l-1,1.82h-7v7c0,1.27.15,1.69,1.55,1.83a39.43,39.43,0,0,0,5.76,0c1.26-.14,2.24-1.41,2.8-2.67.15-.14.43-.28.57-.14l.14.14c0,.14.14.14,0,.28-.28,1-.71,2.95-.85,3.51s-.42.7-1.12.7c-2.39,0-7.16-.14-10-.14H101c-.28,0-.28-.14-.28-.28s.14-.42.28-.42c1-.28,1.26-.7,1.26-2.39V8c0-1.69-.28-2.25-1.26-2.39-.14,0-.28-.14-.28-.42A.3.3,0,0,1,101,5h14.6c.56,0,1,.28,1,.84l.28,2.39c0,.14-.14.42-.28.42a1.06,1.06,0,0,1-.56-.28,4.54,4.54,0,0,0-1-1.27c-.42-.28-.7-.42-2.39-.42h-6.32v7.45Z"/></clipPath><clipPath id="clip-path-37" transform="translate(4.27 4.05)"><path class="cls-1" d="M63.77,14.22l-1,1.82h-7v7c0,1.27.14,1.69,1.54,1.83a39.49,39.49,0,0,0,5.76,0c1.26-.14,2.24-1.41,2.8-2.67.15-.14.43-.28.57-.14l.14.14c0,.14.14.14,0,.28-.28,1-.71,2.95-.85,3.51s-.42.7-1.12.7c-2.39,0-7.16-.14-10-.14H50c-.28,0-.28-.14-.28-.28s.14-.42.28-.42c1-.28,1.26-.7,1.26-2.39V8c0-1.69-.28-2.25-1.26-2.39-.14,0-.28-.14-.28-.42A.3.3,0,0,1,50,5H64.75c.56,0,1,.28,1,.84L66,8.18c0,.14-.15.42-.29.42s-.56-.14-.56-.28a4.54,4.54,0,0,0-1-1.27c-.42-.28-.7-.42-2.39-.42H55.48v7.45Z"/></clipPath><clipPath id="clip-path-39" transform="translate(4.27 4.05)"><path class="cls-1" d="M212.35,9.23V22.29h-8.28v8.29H191V22.29h-8.28V9.23H191V1h13.06V9.23Zm-15.44,1.41a1.08,1.08,0,0,1-.28-.71,1,1,0,1,1,2,0,1.08,1.08,0,0,1-.28.71,1.07,1.07,0,0,0-.28.7,1,1,0,0,0,1,1h5.9a8.14,8.14,0,0,0-7.3-4.63,7.91,7.91,0,0,0-7.3,4.63h5.76a1,1,0,0,0,1-1A.62.62,0,0,0,196.91,10.64Zm-.56,4.49a.51.51,0,0,0,.14-.42,1,1,0,0,0-1-1L190,13.16a9.17,9.17,0,0,0-.56,2.81,8.11,8.11,0,0,0,3.09,6.32Zm1.54,1.54a.7.7,0,0,0-.84,0l-3.93,5.9a8,8,0,0,0,4.49,1.27A7.88,7.88,0,0,0,202,22.57Zm7.3-3.65-5.47.56a1,1,0,0,0-1.13,1,.51.51,0,0,0,.14.42l3.8,7.16a8,8,0,0,0,3.08-6.46A6,6,0,0,0,205.19,13Zm-9.4-2c.14.28,0,.42-.15.42h-3.51a6,6,0,0,1,3.51-2.25,1.78,1.78,0,0,0-.14.84A3.27,3.27,0,0,0,195.79,11.06Zm7.3.28h-3.65a.14.14,0,0,1-.14-.14,2.26,2.26,0,0,0,.42-1.27,1.78,1.78,0,0,0-.14-.84A6.94,6.94,0,0,1,203.09,11.34ZM195.22,15l-2.95,5.62A7.15,7.15,0,0,1,190.45,16c0-.56.14-1.12.14-1.68l4.35.42C195.22,14.57,195.36,14.71,195.22,15Zm2.53,3.09,2.81,4.21a7,7,0,0,1-2.95.7,6.55,6.55,0,0,1-3-.7l2.81-4.21.14-.14A.14.14,0,0,1,197.75,18.08ZM200,14.85a.14.14,0,0,1,.14-.14l4.35-.42a6.82,6.82,0,0,1,.14,1.68A7.5,7.5,0,0,1,203,20.61Z"/></clipPath><clipPath id="clip-path-41" transform="translate(4.27 4.05)"><path class="cls-1" d="M207.69,30.6a1.69,1.69,0,1,0-1.54-1.69,1.45,1.45,0,0,0,1.54,1.69m-2-1.69a2,2,0,1,1,2,2,1.91,1.91,0,0,1-2-2"/></clipPath><clipPath id="clip-path-43" transform="translate(4.27 4.05)"><path class="cls-1" d="M207.43,28.93c.28,0,.56,0,.56-.42s-.28-.28-.42-.28h-.42v.7ZM207,30.2h-.28V28h.84c.56,0,.84.14.84.7a.51.51,0,0,1-.56.56l.7,1h-.42l-.56-1h-.42v1Z"/></clipPath></defs><title>Logo_Inverse</title><g class="cls-3"><g class="cls-4"><rect class="cls-5" x="188" y="6" width="27.41" height="27.13"/></g></g><g class="cls-6"><g class="cls-4"><rect class="cls-7" x="170" width="11.4" height="39.49"/></g></g><g class="cls-8"><g class="cls-4"><rect class="cls-7" y="40" width="227.08" height="29.8"/></g></g><g class="cls-9"><g class="cls-4"><rect class="cls-5" x="6" y="45" width="17.3" height="18.71"/></g></g><g class="cls-10"><g class="cls-4"><rect class="cls-5" x="15" y="45" width="16.18" height="18.57"/></g></g><g class="cls-11"><g class="cls-4"><rect class="cls-5" x="22" y="45" width="18" height="18.71"/></g></g><g class="cls-12"><g class="cls-4"><rect class="cls-5" x="32" y="45" width="16.32" height="18.57"/></g></g><g class="cls-13"><g class="cls-4"><rect class="cls-5" x="45" y="45" width="18.14" height="18.71"/></g></g><g class="cls-14"><g class="cls-4"><rect class="cls-5" x="54" y="45" width="17.3" height="18.71"/></g></g><g class="cls-15"><g class="cls-4"><rect class="cls-5" x="63" y="45" width="18.71" height="18.71"/></g></g><g class="cls-16"><g class="cls-4"><rect class="cls-5" x="74" y="45" width="17.44" height="18.71"/></g></g><g class="cls-17"><g class="cls-4"><rect class="cls-5" x="83" y="45" width="17.44" height="18.71"/></g></g><g class="cls-18"><g class="cls-4"><rect class="cls-7" x="68" y="4" width="38.92" height="31.9"/></g></g><g class="cls-19"><g class="cls-4"><rect class="cls-7" x="27" y="5" width="34.99" height="35.27"/></g></g><g class="cls-20"><g class="cls-4"><rect class="cls-7" x="4" width="31.06" height="39.49"/></g></g><g class="cls-21"><g class="cls-4"><rect class="cls-7" x="120" y="4" width="32.75" height="31.76"/></g></g><g class="cls-22"><g class="cls-4"><rect class="cls-7" x="140" y="4" width="32.61" height="32.5"/></g></g><g class="cls-23"><g class="cls-4"><rect class="cls-7" x="100" y="4" width="26.91" height="31.76"/></g></g><g class="cls-24"><g class="cls-4"><rect class="cls-7" x="49" y="4" width="26.91" height="31.76"/></g></g><g class="cls-25"><g class="cls-4"><rect class="cls-7" x="182" width="39.63" height="39.63"/></g></g><g class="cls-26"><g class="cls-4"><rect class="cls-7" x="205" y="26" width="13.93" height="13.93"/></g></g><g class="cls-27"><g class="cls-4"><rect class="cls-7" x="206" y="27" width="11.82" height="12.25"/></g></g></svg>